<svg id="FINAL" xmlns="http://www.w3.org/2000/svg" viewBox="0 0 104.76 104.76"><defs><style>.cls-1{fill:#fff;}</style></defs><title>NoC.Icon-Only.white</title><path class="cls-1" d="M2463.77,1620.07v52.38a52.38,52.38,0,0,1-52.38,52.38H2359v-52.38a52.38,52.38,0,0,1,52.38-52.38h52.38ZM2382.55,1673a27.47,27.47,0,0,1,8.35-20.4,28.25,28.25,0,0,1,20.49-8.14,28.75,28.75,0,0,1,15.31,4.11l10.35-10.35a42.77,42.77,0,0,0-59.89,59.89l9.67-9.67A27.52,27.52,0,0,1,2382.55,1673Zm62.56-26.89-41.73,41.73a15.19,15.19,0,0,0,7.68,2,18.14,18.14,0,0,0,14.8-7.17l7.85,8.1q-9.35,10.5-22.05,10.52a29.77,29.77,0,0,1-16.92-4.75l-9.67,9.67a42.37,42.37,0,0,0,26.34,9.12A42.78,42.78,0,0,0,2445.11,1646.07Zm-49.92,26.72a19.59,19.59,0,0,0,.93,6.32l21.93-21.93a17.11,17.11,0,0,0-6.11-1.06,16.82,16.82,0,0,0-11.83,4.5C2396.84,1663.63,2395.19,1667.7,2395.19,1672.79Z" transform="translate(-2359.01 -1620.07)"/></svg>