<svg id="FINAL" xmlns="http://www.w3.org/2000/svg" viewBox="0 0 104.76 104.76"><defs><style>.cls-1{fill:#fff;}</style></defs><title>Other.Icon-Only.white</title><path class="cls-1" d="M2607.39,1620.08v52.38a52.38,52.38,0,0,1-52.38,52.38h-52.38v-52.38a52.38,52.38,0,0,1,52.38-52.38h52.38Zm-95.19,52.36a42.81,42.81,0,1,0,42.81-42.81A42.82,42.82,0,0,0,2512.2,1672.45Z" transform="translate(-2502.63 -1620.08)"/><path class="cls-1" d="M2572.23,1659.82a10.64,10.64,0,0,1-.81,4.75c-0.51,1-.89,1.74-1.1,2.21a11,11,0,0,1-1.44,2c-0.81.89-1.32,1.48-1.57,1.74-1.27,1.27-2.46,2.46-3.6,3.56a11.53,11.53,0,0,0-2.25,2.71,7.1,7.1,0,0,0-.55,3.22v4.75h-12.09v-5.94a11.17,11.17,0,0,1,.85-4.88,22.46,22.46,0,0,1,3.52-4.41l5.39-5.56a5.4,5.4,0,0,0,1.19-3.65,5.57,5.57,0,0,0-1.27-3.77,4,4,0,0,0-3.31-1.53,4.17,4.17,0,0,0-3.44,1.78,8.71,8.71,0,0,0-1.7,4.75h-12.64c0.59-5.3,2.5-9.46,5.81-12.47a17.49,17.49,0,0,1,12.3-4.54q7.44,0,12.09,4.07C2570.7,1651.34,2572.23,1655.07,2572.23,1659.82Z" transform="translate(-2502.63 -1620.08)"/><path class="cls-1" d="M2560,1690a7,7,0,1,0,0,9.88A7,7,0,0,0,2560,1690Z" transform="translate(-2502.63 -1620.08)"/></svg>